# xmcd
#
# Track frame offsets: 
#        150
#        11201
#        21207
#        32541
#        44222
#        56349
#        66443
#        76750
#        87556
#        100034
#        112427
#        124424
#        136556
#        146410
#        157347
#        165157
#        173599
#        182686
#        192891
#        201011
#
# Disc length: 2836 seconds
#
# Revision: 0
# Processed by: cddbd v1.5.2PL0 Copyright (c) Steve Scherf et al.
# Submitted via: ExactAudioCopy v0.99pb4
#
DISCID=140b1214
DTITLE=johnny cash - emotions1
DYEAR=2010
DGENRE=Country
TTITLE0=cry cry cry
TTITLE1=hey porter
TTITLE2=folsom prison blues
TTITLE3=so doggone lonesome
TTITLE4=i walk the line
TTITLE5=get rhythm
TTITLE6=there you go
TTITLE7=train of love
TTITLE8=don't make me go
TTITLE9=next in line
TTITLE10=home of the blues
TTITLE11=give my love to rose
TTITLE12=rock island line
TTITLE13=i heard that lonesome whistle
TTITLE14=if the good lord's willing
TTITLE15=country boy
TTITLE16=remember me i'm the one who loves you
TTITLE17=i was there when it happened
TTITLE18=wreck of the old '97
TTITLE19=doin' my time
EXTD=
EXTT0=
EXTT1=
EXTT2=
EXTT3=
EXTT4=
EXTT5=
EXTT6=
EXTT7=
EXTT8=
EXTT9=
EXTT10=
EXTT11=
EXTT12=
EXTT13=
EXTT14=
EXTT15=
EXTT16=
EXTT17=
EXTT18=
EXTT19=
PLAYORDER=
